<svg version="1.1" id="Layer_1" xmlns="http://www.w3.org/2000/svg" xmlns:xlink="http://www.w3.org/1999/xlink" x="0px" y="0px"
	 width="100%" viewBox="0 0 817 534" enable-background="new 0 0 817 534" xml:space="preserve">
<path fill="#FFFFFF" opacity="1.000000" stroke="none" 
	d="
M7.000000,1.000000 
	C277.291229,1.000000 547.582458,1.000000 817.936829,1.000000 
	C817.936829,178.930130 817.936829,356.860291 817.936829,534.895264 
	C545.778992,534.895264 273.557922,534.895264 1.000000,534.895264 
	C1.000000,358.306610 1.000000,181.613007 1.385729,4.449461 
	C3.514305,2.986342 5.257153,1.993171 7.000000,1.000000 
M198.956528,308.432465 
	C206.259064,304.209229 213.659561,300.141205 220.788132,295.642303 
	C222.365570,294.646759 223.863632,292.144806 223.899231,290.307404 
	C224.160583,276.820648 223.948975,263.325348 224.116638,249.835587 
	C224.151001,247.071167 223.166885,245.846619 220.838837,244.543365 
	C209.100067,237.971817 197.551163,231.060440 185.793243,224.524460 
	C184.335327,223.714050 181.647293,223.734604 180.177567,224.545349 
	C168.112534,231.200867 156.162811,238.070084 144.301559,245.083267 
	C143.102585,245.792191 142.074402,247.871857 142.056702,249.328629 
	C141.888626,263.151550 141.870941,276.978607 142.075806,290.800537 
	C142.098785,292.350677 143.388184,294.502289 144.731583,295.315186 
	C156.358047,302.350677 168.067871,309.257324 179.935410,315.875000 
	C181.557983,316.779755 184.476166,316.520386 186.288269,315.692261 
	C190.476578,313.778229 194.354263,311.184479 198.956528,308.432465 
M318.972809,279.473114 
	C318.972809,281.891998 318.972809,284.310852 318.972809,286.948364 
	C321.183929,286.814880 322.635925,286.727234 324.627136,286.607025 
	C324.627136,282.979736 324.627136,279.570496 324.627136,276.510040 
	C331.245575,273.625793 333.511810,278.231506 335.933777,282.098907 
	C338.131989,285.609009 340.484100,288.232056 345.556091,286.331940 
	C342.911957,282.508270 340.312592,278.749329 337.706207,274.980286 
	C343.852509,271.319824 345.591766,268.068970 344.443115,262.813782 
	C343.414825,258.109436 340.055023,255.507935 333.671356,255.118988 
	C328.891479,254.827759 324.079559,255.061508 318.939270,255.061508 
	C319.057098,256.949127 319.152069,258.470032 319.254883,260.117065 
	C323.863098,260.117065 328.026978,259.998383 332.180481,260.155060 
	C335.436096,260.277863 338.777496,260.759216 338.966125,265.079742 
	C339.166595,269.671204 335.776215,270.528076 332.296631,270.706848 
	C327.994202,270.927948 323.671753,270.759766 318.972809,270.759766 
	C318.972809,273.589417 318.972809,276.057465 318.972809,279.473114 
M428.589447,270.775116 
	C426.153290,270.775116 423.717163,270.775116 421.384033,270.775116 
	C421.384033,276.457184 421.384033,281.547119 421.384033,286.942688 
	C423.327240,286.795197 424.895386,286.676178 426.967834,286.518860 
	C426.967834,282.729797 426.967834,279.330933 426.967834,276.282379 
	C433.931763,273.781860 435.835999,278.996552 438.565521,282.772766 
	C441.778656,287.218140 441.738129,287.247437 447.564545,286.264679 
	C444.964020,282.519531 442.442963,278.888824 439.929321,275.268768 
	C446.354980,270.680908 448.041687,267.150421 446.400757,262.042725 
	C444.885193,257.325165 441.163635,255.162048 433.966949,254.991943 
	C430.139252,254.901459 426.306732,254.987930 422.477051,255.042526 
	C422.033447,255.048859 421.594238,255.363052 420.982483,255.600754 
	C421.092529,257.069092 421.199585,258.497406 421.321136,260.119507 
	C425.604828,260.119507 429.598450,260.022949 433.585083,260.148193 
	C437.170959,260.260834 441.062683,260.510864 441.041077,265.429810 
	C441.019531,270.330719 437.064117,270.450439 433.529114,270.751862 
	C432.206085,270.864655 430.865692,270.773468 428.589447,270.775116 
M577.561279,257.991302 
	C578.017761,257.138550 578.474243,256.285797 578.951843,255.393600 
	C574.989136,254.123657 572.630127,255.362274 570.773682,258.885559 
	C568.836670,262.561859 566.200073,265.869507 564.108765,268.982025 
	C557.422424,265.357513 558.619080,253.940048 548.092712,255.007843 
	C548.092712,265.730682 548.092712,276.121948 548.092712,286.631195 
	C549.900574,286.631195 551.497131,286.631195 553.723511,286.631195 
	C553.723511,279.899384 553.723511,273.393127 553.723511,266.886871 
	C554.085815,266.779999 554.448120,266.673126 554.810425,266.566254 
	C557.663635,270.695129 560.516846,274.824036 563.596252,279.280182 
	C564.076477,278.619415 564.385864,278.230438 564.656250,277.815918 
	C568.825623,271.423218 572.989868,265.027191 577.561279,257.991302 
M607.982849,259.686554 
	C604.245789,255.899857 588.551392,252.942886 585.520508,255.608871 
	C585.520508,256.870819 585.520508,258.257324 585.520508,260.092529 
	C589.583130,260.092529 593.378723,260.004852 597.168335,260.117676 
	C600.807861,260.226013 603.902832,261.414398 604.012024,265.702972 
	C604.125244,270.152191 600.873413,271.162415 597.301453,271.301727 
	C593.381531,271.454590 589.451111,271.336548 585.485840,271.336548 
	C585.485840,276.867706 585.485840,281.628540 585.485840,286.451599 
	C587.423462,286.451599 589.098511,286.451599 591.227051,286.451599 
	C591.227051,282.951111 591.227051,279.877777 591.227051,276.939911 
	C594.829041,276.594788 598.029053,276.598602 601.083862,275.934601 
	C608.811340,274.254883 611.817139,267.638702 607.982849,259.686554 
M496.344086,280.880676 
	C490.691040,277.922943 488.715729,274.546692 489.780426,268.957764 
	C491.755432,258.590454 500.236755,260.222504 507.656189,259.890991 
	C507.656189,258.139832 507.656189,256.708313 507.656189,255.105743 
	C499.237976,254.474655 491.027740,254.324402 485.837433,262.480499 
	C482.312256,268.020020 482.472137,274.014374 486.041107,279.439972 
	C491.189056,287.266022 499.198120,287.244232 507.603699,286.632202 
	C507.603699,284.915771 507.603699,283.486481 507.603699,281.958099 
	C504.090759,281.639648 500.642059,281.327057 496.344086,280.880676 
M263.480377,261.607849 
	C267.785065,260.828308 272.089783,260.048737 276.654602,259.222046 
	C276.523438,257.888580 276.385742,256.488922 276.244507,255.053238 
	C267.513367,254.463943 259.285706,254.493317 254.393982,262.928284 
	C251.122574,268.569275 251.322632,274.539276 255.171204,279.858795 
	C260.457062,287.164886 268.195374,287.304901 276.321716,286.620880 
	C276.321716,284.841858 276.321716,283.430481 276.321716,281.860474 
	C269.660675,281.039764 261.831024,283.133728 259.012268,274.370850 
	C257.439240,269.480652 258.497711,265.224670 263.480377,261.607849 
M533.766418,274.003479 
	C534.867310,276.952942 536.103638,279.860443 537.034790,282.862549 
	C538.190125,286.587555 540.373962,287.848663 544.497070,286.258881 
	C541.220947,277.197266 537.760742,268.251678 534.795410,259.144958 
	C533.432190,254.958237 531.168030,254.114883 527.202271,255.496475 
	C529.304260,261.440033 531.396790,267.356689 533.766418,274.003479 
M299.779877,266.061157 
	C301.835175,271.633698 304.085724,277.144379 305.877716,282.800354 
	C307.089630,286.625397 309.171234,287.785217 313.319916,286.263672 
	C309.568054,275.896362 305.824005,265.550659 302.089447,255.231171 
	C299.946869,255.231171 298.043854,255.231171 295.958984,255.231171 
	C297.210175,258.783936 298.360443,262.050049 299.779877,266.061157 
M624.035889,270.182861 
	C624.035889,265.237183 624.035889,260.291504 624.035889,255.169678 
	C622.040466,255.169678 620.459961,255.169678 619.020142,255.169678 
	C619.020142,262.626801 618.623108,269.908203 619.148621,277.122406 
	C619.552490,282.666992 623.580139,285.744019 629.593445,285.970062 
	C629.131592,284.201202 629.227722,281.731964 628.183105,281.074280 
	C624.266907,278.608551 624.033325,274.984985 624.035889,270.182861 
M634.043335,284.916138 
	C635.522156,285.051361 637.238342,285.738281 638.436951,285.222382 
	C642.699036,283.387878 644.475220,279.458160 644.711548,275.210968 
	C645.078430,268.618622 644.808472,261.990875 644.808472,255.175217 
	C642.934998,255.175217 641.346619,255.175217 639.236572,255.175217 
	C639.236572,259.464081 639.259399,263.583710 639.230774,267.703003 
	C639.194397,272.935333 640.164429,278.505951 634.357056,281.811676 
	C633.935303,282.051788 634.125916,283.367859 634.043335,284.916138 
M671.550537,254.975006 
	C659.396851,255.296539 653.040955,261.128357 653.299255,271.971863 
	C655.063477,271.971863 656.836182,271.971863 658.611267,271.972931 
	C660.721375,261.640533 661.561157,261.106018 677.718506,259.861725 
	C677.718506,258.316254 677.718506,256.766449 677.718506,254.974945 
	C675.774841,254.974945 674.126526,254.974945 671.550537,254.975006 
M653.410034,281.991486 
	C653.332947,283.520721 653.255920,285.049957 653.180664,286.542847 
	C669.956116,287.946381 679.250610,281.535736 677.476685,269.956970 
	C675.791626,270.036743 674.078613,270.117859 672.489075,270.193115 
	C671.039429,278.589478 668.064575,281.254547 660.184875,281.606964 
	C658.197449,281.695892 656.204590,281.662994 653.410034,281.991486 
M393.795715,286.865814 
	C399.727722,286.865814 405.659698,286.865814 411.901917,286.865814 
	C411.901917,285.069824 411.901917,283.526794 411.901917,281.868225 
	C404.141357,281.868225 396.608368,281.868225 389.113007,281.868225 
	C387.789185,285.742340 388.957977,287.409973 393.795715,286.865814 
M356.425995,281.643066 
	C355.730255,283.195923 355.034546,284.748779 354.166351,286.686493 
	C362.853790,286.686493 370.261627,286.686493 377.890594,286.686493 
	C377.890594,284.969696 377.890594,283.433838 377.890594,281.631592 
	C370.803101,281.631592 364.035492,281.631592 356.425995,281.643066 
M517.999329,277.337250 
	C516.806213,280.343170 515.613159,283.349121 514.417297,286.362122 
	C518.524597,287.788422 520.714417,286.584625 521.810852,282.763123 
	C522.580200,280.081360 523.711304,277.463776 524.990479,274.976776 
	C527.088745,270.897095 527.116516,267.142670 523.783569,263.133118 
	C521.842163,267.829895 520.029480,272.215210 517.999329,277.337250 
M288.227509,273.612915 
	C286.572968,277.879761 284.918427,282.146637 283.262268,286.417694 
	C287.361023,287.812439 289.501801,286.457703 290.656403,282.735687 
	C291.633362,279.586487 292.721497,276.383026 294.357635,273.548279 
	C296.682770,269.519836 294.799927,266.551453 292.763306,262.697693 
	C291.187195,266.546539 289.880798,269.736725 288.227509,273.612915 
M573.783081,278.606781 
	C573.783081,281.238617 573.783081,283.870422 573.783081,286.621643 
	C575.769348,286.621643 577.365906,286.621643 579.025269,286.621643 
	C579.025269,279.207031 579.025269,272.039520 579.025269,264.494385 
	C575.027649,268.383331 572.943726,272.485413 573.783081,278.606781 
M365.502686,268.134186 
	C362.049500,268.134186 358.596313,268.134186 354.897888,268.134186 
	C354.897888,269.993805 354.897888,271.407684 354.897888,272.939392 
	C361.969421,272.939392 368.859344,272.939392 376.033173,272.939392 
	C375.928101,271.237823 375.841309,269.832031 375.736481,268.134216 
	C372.429749,268.134216 369.451721,268.134216 365.502686,268.134186 
M397.600159,273.216949 
	C401.589966,273.216949 405.579803,273.216949 410.014496,273.216949 
	C409.919128,271.414124 409.838257,269.885132 409.760834,268.421753 
	C402.533234,268.421753 395.785858,268.421753 388.931488,268.421753 
	C388.931488,270.116730 388.931488,271.516418 388.931488,273.216766 
	C391.695435,273.216766 394.174835,273.216766 397.600159,273.216949 
M399.510071,260.070801 
	C403.632416,260.070801 407.754761,260.070801 412.068390,260.070801 
	C412.068390,258.218842 412.068390,256.822083 412.068390,255.218811 
	C404.278625,255.218811 396.701996,255.218811 388.937012,255.218811 
	C388.937012,256.835907 388.937012,258.232452 388.937012,260.070801 
	C392.272766,260.070801 395.396240,260.070801 399.510071,260.070801 
M362.543335,260.070801 
	C367.634247,260.070801 372.725128,260.070801 377.925720,260.070801 
	C377.925720,258.179077 377.925720,256.785217 377.925720,255.238480 
	C370.149963,255.238480 362.605927,255.238480 354.959473,255.238480 
	C354.959473,256.873077 354.959473,258.267548 354.959473,260.070801 
	C357.317047,260.070801 359.437317,260.070801 362.543335,260.070801 
z"/>
<path fill="#E4E4E4" opacity="1.000000" stroke="none" 
	d="
M6.500528,1.000000 
	C5.257153,1.993171 3.514305,2.986342 1.385729,3.989757 
	C0.248693,-1.031396 4.112168,1.630139 6.500528,1.000000 
z"/>
<path fill="#613856" opacity="1.000000" stroke="none" 
	d="
M198.657227,308.649414 
	C194.354263,311.184479 190.476578,313.778229 186.288269,315.692261 
	C184.476166,316.520386 181.557983,316.779755 179.935410,315.875000 
	C168.067871,309.257324 156.358047,302.350677 144.731583,295.315186 
	C143.388184,294.502289 142.098785,292.350677 142.075806,290.800537 
	C141.870941,276.978607 141.888626,263.151550 142.056702,249.328629 
	C142.074402,247.871857 143.102585,245.792191 144.301559,245.083267 
	C156.162811,238.070084 168.112534,231.200867 180.177567,224.545349 
	C181.647293,223.734604 184.335327,223.714050 185.793243,224.524460 
	C197.551163,231.060440 209.100067,237.971817 220.838837,244.543365 
	C223.166885,245.846619 224.151001,247.071167 224.116638,249.835587 
	C223.948975,263.325348 224.160583,276.820648 223.899231,290.307404 
	C223.863632,292.144806 222.365570,294.646759 220.788132,295.642303 
	C213.659561,300.141205 206.259064,304.209229 198.657227,308.649414 
M156.805313,267.521332 
	C156.805023,264.354797 156.925385,261.181274 156.741791,258.025391 
	C156.673599,256.853058 156.220154,255.162399 155.379654,254.671402 
	C152.136337,252.776733 148.665634,251.271286 144.496323,249.238922 
	C144.496323,263.562469 144.421753,277.010742 144.623047,290.454865 
	C144.641205,291.667633 146.207367,293.236389 147.449097,293.988983 
	C154.531525,298.281433 161.713791,302.411163 168.902756,306.525177 
	C172.963486,308.849030 177.102127,311.036743 181.011963,313.179596 
	C184.062149,303.007019 180.745728,296.633575 171.148743,293.675446 
	C170.215454,293.387787 169.435623,292.597595 168.501556,292.317963 
	C158.761810,289.402618 154.786041,283.062744 156.765915,273.006226 
	C157.050201,271.562256 156.805267,270.014099 156.805313,267.521332 
M215.685120,252.032684 
	C210.448502,253.500153 208.546219,256.705292 209.073013,262.286896 
	C209.663803,268.546722 209.052124,274.910736 209.271973,281.218658 
	C209.389587,284.593475 208.497528,286.640381 205.213013,288.194458 
	C199.076965,291.097778 193.161362,294.490082 187.290024,297.912262 
	C185.959351,298.687897 184.452774,300.334473 184.295593,301.723633 
	C183.878296,305.412109 184.153915,309.178986 184.153915,312.872864 
	C185.046829,312.919647 185.441696,313.067932 185.675171,312.934265 
	C196.865265,306.528534 208.086060,300.173126 219.153259,293.560791 
	C220.320221,292.863556 221.124512,290.651123 221.160126,289.119873 
	C221.353333,280.814362 221.251984,272.502014 221.252045,264.192017 
	C221.252090,259.487854 221.252045,254.783661 221.252045,249.438202 
	C219.041992,250.466354 217.722305,251.080307 215.685120,252.032684 
M164.001556,249.535828 
	C170.401978,245.755173 176.802399,241.974518 182.942734,238.347473 
	C190.797043,242.959900 198.369354,247.442352 205.992508,251.836594 
	C206.907288,252.363892 208.331207,252.940277 209.120880,252.591690 
	C212.649628,251.034012 216.033920,249.149109 220.209717,247.002274 
	C210.844101,241.598282 201.864609,237.415253 194.063324,231.640533 
	C185.942780,225.629471 179.381058,226.348022 171.526764,231.847809 
	C163.613556,237.388855 154.872345,241.747467 145.656036,247.111847 
	C152.096436,249.519562 156.709824,255.879486 164.001556,249.535828 
M165.731873,279.265869 
	C170.178040,276.667816 174.673859,274.149048 179.036102,271.416992 
	C180.152573,270.717743 181.590179,269.362640 181.617111,268.277466 
	C181.829285,259.727753 181.734940,251.170425 181.734940,241.850143 
	C174.260330,246.224045 167.514374,250.091568 160.882523,254.145782 
	C159.975525,254.700241 159.133453,256.176361 159.115326,257.240295 
	C158.971848,265.654785 159.035522,274.072845 159.035522,283.058594 
	C161.439590,281.734283 163.288025,280.716034 165.731873,279.265869 
M206.964264,266.528870 
	C206.964249,264.036713 207.098709,261.534607 206.914703,259.056091 
	C206.801147,257.526398 206.695740,255.247101 205.742538,254.648468 
	C198.811157,250.295410 191.665146,246.284088 184.151123,241.911057 
	C184.151123,250.604309 184.077682,258.413086 184.214752,266.218140 
	C184.241318,267.730743 184.620117,269.975159 185.634460,270.613129 
	C192.437820,274.892029 199.456970,278.827759 206.964264,283.199829 
	C206.964264,277.421844 206.964264,272.468231 206.964264,266.528870 
M164.265305,287.362610 
	C169.508148,290.184723 174.691803,293.127502 180.033737,295.747589 
	C181.442230,296.438446 183.671326,296.805145 184.957138,296.171387 
	C191.688629,292.853607 198.237869,289.166077 205.565887,285.222046 
	C198.072449,280.824158 191.271606,276.790802 184.407684,272.867767 
	C183.702560,272.464783 182.408920,272.350677 181.745865,272.729004 
	C174.751266,276.720337 167.829346,280.838989 160.527740,285.134064 
	C161.991241,285.989685 162.825638,286.477539 164.265305,287.362610 
z"/>
<path fill="#5C3150" opacity="1.000000" stroke="none" 
	d="
M318.972809,278.999329 
	C318.972809,276.057465 318.972809,273.589417 318.972809,270.759766 
	C323.671753,270.759766 327.994202,270.927948 332.296631,270.706848 
	C335.776215,270.528076 339.166595,269.671204 338.966125,265.079742 
	C338.777496,260.759216 335.436096,260.277863 332.180481,260.155060 
	C328.026978,259.998383 323.863098,260.117065 319.254883,260.117065 
	C319.152069,258.470032 319.057098,256.949127 318.939270,255.061508 
	C324.079559,255.061508 328.891479,254.827759 333.671356,255.118988 
	C340.055023,255.507935 343.414825,258.109436 344.443115,262.813782 
	C345.591766,268.068970 343.852509,271.319824 337.706207,274.980286 
	C340.312592,278.749329 342.911957,282.508270 345.556091,286.331940 
	C340.484100,288.232056 338.131989,285.609009 335.933777,282.098907 
	C333.511810,278.231506 331.245575,273.625793 324.627136,276.510040 
	C324.627136,279.570496 324.627136,282.979736 324.627136,286.607025 
	C322.635925,286.727234 321.183929,286.814880 318.972809,286.948364 
	C318.972809,284.310852 318.972809,281.891998 318.972809,278.999329 
z"/>
<path fill="#5D3251" opacity="1.000000" stroke="none" 
	d="
M429.061340,270.775208 
	C430.865692,270.773468 432.206085,270.864655 433.529114,270.751862 
	C437.064117,270.450439 441.019531,270.330719 441.041077,265.429810 
	C441.062683,260.510864 437.170959,260.260834 433.585083,260.148193 
	C429.598450,260.022949 425.604828,260.119507 421.321136,260.119507 
	C421.199585,258.497406 421.092529,257.069092 420.982483,255.600754 
	C421.594238,255.363052 422.033447,255.048859 422.477051,255.042526 
	C426.306732,254.987930 430.139252,254.901459 433.966949,254.991943 
	C441.163635,255.162048 444.885193,257.325165 446.400757,262.042725 
	C448.041687,267.150421 446.354980,270.680908 439.929321,275.268768 
	C442.442963,278.888824 444.964020,282.519531 447.564545,286.264679 
	C441.738129,287.247437 441.778656,287.218140 438.565521,282.772766 
	C435.835999,278.996552 433.931763,273.781860 426.967834,276.282379 
	C426.967834,279.330933 426.967834,282.729797 426.967834,286.518860 
	C424.895386,286.676178 423.327240,286.795197 421.384033,286.942688 
	C421.384033,281.547119 421.384033,276.457184 421.384033,270.775116 
	C423.717163,270.775116 426.153290,270.775116 429.061340,270.775208 
z"/>
<path fill="#5C3251" opacity="1.000000" stroke="none" 
	d="
M577.358276,258.311615 
	C572.989868,265.027191 568.825623,271.423218 564.656250,277.815918 
	C564.385864,278.230438 564.076477,278.619415 563.596252,279.280182 
	C560.516846,274.824036 557.663635,270.695129 554.810425,266.566254 
	C554.448120,266.673126 554.085815,266.779999 553.723511,266.886871 
	C553.723511,273.393127 553.723511,279.899384 553.723511,286.631195 
	C551.497131,286.631195 549.900574,286.631195 548.092712,286.631195 
	C548.092712,276.121948 548.092712,265.730682 548.092712,255.007843 
	C558.619080,253.940048 557.422424,265.357513 564.108765,268.982025 
	C566.200073,265.869507 568.836670,262.561859 570.773682,258.885559 
	C572.630127,255.362274 574.989136,254.123657 578.951843,255.393600 
	C578.474243,256.285797 578.017761,257.138550 577.358276,258.311615 
z"/>
<path fill="#603755" opacity="1.000000" stroke="none" 
	d="
M608.198975,260.000610 
	C611.817139,267.638702 608.811340,274.254883 601.083862,275.934601 
	C598.029053,276.598602 594.829041,276.594788 591.227051,276.939911 
	C591.227051,279.877777 591.227051,282.951111 591.227051,286.451599 
	C589.098511,286.451599 587.423462,286.451599 585.485840,286.451599 
	C585.485840,281.628540 585.485840,276.867706 585.485840,271.336548 
	C589.451111,271.336548 593.381531,271.454590 597.301453,271.301727 
	C600.873413,271.162415 604.125244,270.152191 604.012024,265.702972 
	C603.902832,261.414398 600.807861,260.226013 597.168335,260.117676 
	C593.378723,260.004852 589.583130,260.092529 585.520508,260.092529 
	C585.520508,258.257324 585.520508,256.870819 585.520508,255.608871 
	C588.551392,252.942886 604.245789,255.899857 608.198975,260.000610 
z"/>
<path fill="#5C3251" opacity="1.000000" stroke="none" 
	d="
M496.768738,280.947571 
	C500.642059,281.327057 504.090759,281.639648 507.603699,281.958099 
	C507.603699,283.486481 507.603699,284.915771 507.603699,286.632202 
	C499.198120,287.244232 491.189056,287.266022 486.041107,279.439972 
	C482.472137,274.014374 482.312256,268.020020 485.837433,262.480499 
	C491.027740,254.324402 499.237976,254.474655 507.656189,255.105743 
	C507.656189,256.708313 507.656189,258.139832 507.656189,259.890991 
	C500.236755,260.222504 491.755432,258.590454 489.780426,268.957764 
	C488.715729,274.546692 490.691040,277.922943 496.768738,280.947571 
z"/>
<path fill="#5F3553" opacity="1.000000" stroke="none" 
	d="
M263.149261,261.838043 
	C258.497711,265.224670 257.439240,269.480652 259.012268,274.370850 
	C261.831024,283.133728 269.660675,281.039764 276.321716,281.860474 
	C276.321716,283.430481 276.321716,284.841858 276.321716,286.620880 
	C268.195374,287.304901 260.457062,287.164886 255.171204,279.858795 
	C251.322632,274.539276 251.122574,268.569275 254.393982,262.928284 
	C259.285706,254.493317 267.513367,254.463943 276.244507,255.053238 
	C276.385742,256.488922 276.523438,257.888580 276.654602,259.222046 
	C272.089783,260.048737 267.785065,260.828308 263.149261,261.838043 
z"/>
<path fill="#5B304F" opacity="1.000000" stroke="none" 
	d="
M533.627808,273.638428 
	C531.396790,267.356689 529.304260,261.440033 527.202271,255.496475 
	C531.168030,254.114883 533.432190,254.958237 534.795410,259.144958 
	C537.760742,268.251678 541.220947,277.197266 544.497070,286.258881 
	C540.373962,287.848663 538.190125,286.587555 537.034790,282.862549 
	C536.103638,279.860443 534.867310,276.952942 533.627808,273.638428 
z"/>
<path fill="#5C3150" opacity="1.000000" stroke="none" 
	d="
M299.645294,265.688660 
	C298.360443,262.050049 297.210175,258.783936 295.958984,255.231171 
	C298.043854,255.231171 299.946869,255.231171 302.089447,255.231171 
	C305.824005,265.550659 309.568054,275.896362 313.319916,286.263672 
	C309.171234,287.785217 307.089630,286.625397 305.877716,282.800354 
	C304.085724,277.144379 301.835175,271.633698 299.645294,265.688660 
z"/>
<path fill="#5F3553" opacity="1.000000" stroke="none" 
	d="
M624.035889,270.640381 
	C624.033325,274.984985 624.266907,278.608551 628.183105,281.074280 
	C629.227722,281.731964 629.131592,284.201202 629.593445,285.970062 
	C623.580139,285.744019 619.552490,282.666992 619.148621,277.122406 
	C618.623108,269.908203 619.020142,262.626801 619.020142,255.169678 
	C620.459961,255.169678 622.040466,255.169678 624.035889,255.169678 
	C624.035889,260.291504 624.035889,265.237183 624.035889,270.640381 
z"/>
<path fill="#5F3553" opacity="1.000000" stroke="none" 
	d="
M634.037598,284.549896 
	C634.125916,283.367859 633.935303,282.051788 634.357056,281.811676 
	C640.164429,278.505951 639.194397,272.935333 639.230774,267.703003 
	C639.259399,263.583710 639.236572,259.464081 639.236572,255.175217 
	C641.346619,255.175217 642.934998,255.175217 644.808472,255.175217 
	C644.808472,261.990875 645.078430,268.618622 644.711548,275.210968 
	C644.475220,279.458160 642.699036,283.387878 638.436951,285.222382 
	C637.238342,285.738281 635.522156,285.051361 634.037598,284.549896 
z"/>
<path fill="#5B304F" opacity="1.000000" stroke="none" 
	d="
M672.014404,254.974976 
	C674.126526,254.974945 675.774841,254.974945 677.718506,254.974945 
	C677.718506,256.766449 677.718506,258.316254 677.718506,259.861725 
	C661.561157,261.106018 660.721375,261.640533 658.610107,271.972412 
	C656.836182,271.971863 655.063477,271.971863 653.299255,271.971863 
	C653.040955,261.128357 659.396851,255.296539 672.014404,254.974976 
z"/>
<path fill="#5D3251" opacity="1.000000" stroke="none" 
	d="
M653.812134,281.838806 
	C656.204590,281.662994 658.197449,281.695892 660.184875,281.606964 
	C668.064575,281.254547 671.039429,278.589478 672.489075,270.193115 
	C674.078613,270.117859 675.791626,270.036743 677.476685,269.956970 
	C679.250610,281.535736 669.956116,287.946381 653.180664,286.542847 
	C653.255920,285.049957 653.332947,283.520721 653.812134,281.838806 
z"/>
<path fill="#5B304F" opacity="1.000000" stroke="none" 
	d="
M393.342285,286.865784 
	C388.957977,287.409973 387.789185,285.742340 389.113007,281.868225 
	C396.608368,281.868225 404.141357,281.868225 411.901917,281.868225 
	C411.901917,283.526794 411.901917,285.069824 411.901917,286.865814 
	C405.659698,286.865814 399.727722,286.865814 393.342285,286.865784 
z"/>
<path fill="#5B304F" opacity="1.000000" stroke="none" 
	d="
M356.846924,281.637329 
	C364.035492,281.631592 370.803101,281.631592 377.890594,281.631592 
	C377.890594,283.433838 377.890594,284.969696 377.890594,286.686493 
	C370.261627,286.686493 362.853790,286.686493 354.166351,286.686493 
	C355.034546,284.748779 355.730255,283.195923 356.846924,281.637329 
z"/>
<path fill="#5D3251" opacity="1.000000" stroke="none" 
	d="
M518.108093,276.968872 
	C520.029480,272.215210 521.842163,267.829895 523.783569,263.133118 
	C527.116516,267.142670 527.088745,270.897095 524.990479,274.976776 
	C523.711304,277.463776 522.580200,280.081360 521.810852,282.763123 
	C520.714417,286.584625 518.524597,287.788422 514.417297,286.362122 
	C515.613159,283.349121 516.806213,280.343170 518.108093,276.968872 
z"/>
<path fill="#5D3251" opacity="1.000000" stroke="none" 
	d="
M288.400940,273.269897 
	C289.880798,269.736725 291.187195,266.546539 292.763306,262.697693 
	C294.799927,266.551453 296.682770,269.519836 294.357635,273.548279 
	C292.721497,276.383026 291.633362,279.586487 290.656403,282.735687 
	C289.501801,286.457703 287.361023,287.812439 283.262268,286.417694 
	C284.918427,282.146637 286.572968,277.879761 288.400940,273.269897 
z"/>
<path fill="#5B304F" opacity="1.000000" stroke="none" 
	d="
M573.783203,278.155334 
	C572.943726,272.485413 575.027649,268.383331 579.025269,264.494385 
	C579.025269,272.039520 579.025269,279.207031 579.025269,286.621643 
	C577.365906,286.621643 575.769348,286.621643 573.783081,286.621643 
	C573.783081,283.870422 573.783081,281.238617 573.783203,278.155334 
z"/>
<path fill="#5B304F" opacity="1.000000" stroke="none" 
	d="
M365.988159,268.134216 
	C369.451721,268.134216 372.429749,268.134216 375.736481,268.134216 
	C375.841309,269.832031 375.928101,271.237823 376.033173,272.939392 
	C368.859344,272.939392 361.969421,272.939392 354.897888,272.939392 
	C354.897888,271.407684 354.897888,269.993805 354.897888,268.134186 
	C358.596313,268.134186 362.049500,268.134186 365.988159,268.134216 
z"/>
<path fill="#5B304F" opacity="1.000000" stroke="none" 
	d="
M397.127197,273.216858 
	C394.174835,273.216766 391.695435,273.216766 388.931488,273.216766 
	C388.931488,271.516418 388.931488,270.116730 388.931488,268.421753 
	C395.785858,268.421753 402.533234,268.421753 409.760834,268.421753 
	C409.838257,269.885132 409.919128,271.414124 410.014496,273.216949 
	C405.579803,273.216949 401.589966,273.216949 397.127197,273.216858 
z"/>
<path fill="#522546" opacity="1.000000" stroke="none" 
	d="
M399.014893,260.070801 
	C395.396240,260.070801 392.272766,260.070801 388.937012,260.070801 
	C388.937012,258.232452 388.937012,256.835907 388.937012,255.218811 
	C396.701996,255.218811 404.278625,255.218811 412.068390,255.218811 
	C412.068390,256.822083 412.068390,258.218842 412.068390,260.070801 
	C407.754761,260.070801 403.632416,260.070801 399.014893,260.070801 
z"/>
<path fill="#522546" opacity="1.000000" stroke="none" 
	d="
M362.050476,260.070801 
	C359.437317,260.070801 357.317047,260.070801 354.959473,260.070801 
	C354.959473,258.267548 354.959473,256.873077 354.959473,255.238480 
	C362.605927,255.238480 370.149963,255.238480 377.925720,255.238480 
	C377.925720,256.785217 377.925720,258.179077 377.925720,260.070801 
	C372.725128,260.070801 367.634247,260.070801 362.050476,260.070801 
z"/>
<path fill="#F8F6F8" opacity="1.000000" stroke="none" 
	d="
M156.805283,268.017761 
	C156.805267,270.014099 157.050201,271.562256 156.765915,273.006226 
	C154.786041,283.062744 158.761810,289.402618 168.501556,292.317963 
	C169.435623,292.597595 170.215454,293.387787 171.148743,293.675446 
	C180.745728,296.633575 184.062149,303.007019 181.011963,313.179596 
	C177.102127,311.036743 172.963486,308.849030 168.902756,306.525177 
	C161.713791,302.411163 154.531525,298.281433 147.449097,293.988983 
	C146.207367,293.236389 144.641205,291.667633 144.623047,290.454865 
	C144.421753,277.010742 144.496323,263.562469 144.496323,249.238922 
	C148.665634,251.271286 152.136337,252.776733 155.379654,254.671402 
	C156.220154,255.162399 156.673599,256.853058 156.741791,258.025391 
	C156.925385,261.181274 156.805023,264.354797 156.805283,268.017761 
z"/>
<path fill="#FCFBFB" opacity="1.000000" stroke="none" 
	d="
M216.043854,251.863464 
	C217.722305,251.080307 219.041992,250.466354 221.252045,249.438202 
	C221.252045,254.783661 221.252090,259.487854 221.252045,264.192017 
	C221.251984,272.502014 221.353333,280.814362 221.160126,289.119873 
	C221.124512,290.651123 220.320221,292.863556 219.153259,293.560791 
	C208.086060,300.173126 196.865265,306.528534 185.675171,312.934265 
	C185.441696,313.067932 185.046829,312.919647 184.153915,312.872864 
	C184.153915,309.178986 183.878296,305.412109 184.295593,301.723633 
	C184.452774,300.334473 185.959351,298.687897 187.290024,297.912262 
	C193.161362,294.490082 199.076965,291.097778 205.213013,288.194458 
	C208.497528,286.640381 209.389587,284.593475 209.271973,281.218658 
	C209.052124,274.910736 209.663803,268.546722 209.073013,262.286896 
	C208.546219,256.705292 210.448502,253.500153 216.043854,251.863464 
z"/>
<path fill="#FCFBFB" opacity="1.000000" stroke="none" 
	d="
M163.684448,249.721100 
	C156.709824,255.879486 152.096436,249.519562 145.656036,247.111847 
	C154.872345,241.747467 163.613556,237.388855 171.526764,231.847809 
	C179.381058,226.348022 185.942780,225.629471 194.063324,231.640533 
	C201.864609,237.415253 210.844101,241.598282 220.209717,247.002274 
	C216.033920,249.149109 212.649628,251.034012 209.120880,252.591690 
	C208.331207,252.940277 206.907288,252.363892 205.992508,251.836594 
	C198.369354,247.442352 190.797043,242.959900 182.942734,238.347473 
	C176.802399,241.974518 170.401978,245.755173 163.684448,249.721100 
z"/>
<path fill="#FCFBFB" opacity="1.000000" stroke="none" 
	d="
M165.434174,279.481842 
	C163.288025,280.716034 161.439590,281.734283 159.035522,283.058594 
	C159.035522,274.072845 158.971848,265.654785 159.115326,257.240295 
	C159.133453,256.176361 159.975525,254.700241 160.882523,254.145782 
	C167.514374,250.091568 174.260330,246.224045 181.734940,241.850143 
	C181.734940,251.170425 181.829285,259.727753 181.617111,268.277466 
	C181.590179,269.362640 180.152573,270.717743 179.036102,271.416992 
	C174.673859,274.149048 170.178040,276.667816 165.434174,279.481842 
z"/>
<path fill="#FCFBFC" opacity="1.000000" stroke="none" 
	d="
M206.964264,267.021759 
	C206.964264,272.468231 206.964264,277.421844 206.964264,283.199829 
	C199.456970,278.827759 192.437820,274.892029 185.634460,270.613129 
	C184.620117,269.975159 184.241318,267.730743 184.214752,266.218140 
	C184.077682,258.413086 184.151123,250.604309 184.151123,241.911057 
	C191.665146,246.284088 198.811157,250.295410 205.742538,254.648468 
	C206.695740,255.247101 206.801147,257.526398 206.914703,259.056091 
	C207.098709,261.534607 206.964249,264.036713 206.964264,267.021759 
z"/>
<path fill="#FCFBFC" opacity="1.000000" stroke="none" 
	d="
M163.962677,287.164001 
	C162.825638,286.477539 161.991241,285.989685 160.527740,285.134064 
	C167.829346,280.838989 174.751266,276.720337 181.745865,272.729004 
	C182.408920,272.350677 183.702560,272.464783 184.407684,272.867767 
	C191.271606,276.790802 198.072449,280.824158 205.565887,285.222046 
	C198.237869,289.166077 191.688629,292.853607 184.957138,296.171387 
	C183.671326,296.805145 181.442230,296.438446 180.033737,295.747589 
	C174.691803,293.127502 169.508148,290.184723 163.962677,287.164001 
z"/>
</svg>